<?xml version="1.0" encoding="UTF-8"?>
<svg xmlns="http://www.w3.org/2000/svg" width="25" height="24" viewBox="0 0 25 24" fill="none">
  <mask id="mask0_935_9377" style="mask-type:alpha" maskUnits="userSpaceOnUse" x="0" y="0" width="25" height="24">
    <rect x="0.5" width="24" height="24" fill="#D9D9D9"></rect>
  </mask>
  <g mask="url(#mask0_935_9377)">
    <path d="M5.11538 20C4.65513 20 4.27083 19.8458 3.9625 19.5375C3.65417 19.2292 3.5 18.8449 3.5 18.3846V8.61538C3.5 8.15513 3.65417 7.77083 3.9625 7.4625C4.27083 7.15417 4.65513 7 5.11538 7H9.5V5.61537C9.5 5.15512 9.65417 4.77083 9.9625 4.4625C10.2708 4.15417 10.6551 4 11.1154 4H13.8846C14.3449 4 14.7292 4.15417 15.0375 4.4625C15.3458 4.77083 15.5 5.15512 15.5 5.61537V7H19.8846C20.3449 7 20.7292 7.15417 21.0375 7.4625C21.3458 7.77083 21.5 8.15513 21.5 8.61538V18.3846C21.5 18.8449 21.3458 19.2292 21.0375 19.5375C20.7292 19.8458 20.3449 20 19.8846 20H5.11538ZM5.11538 19H19.8846C20.0385 19 20.1795 18.9359 20.3077 18.8077C20.4359 18.6795 20.5 18.5385 20.5 18.3846V8.61538C20.5 8.46154 20.4359 8.32052 20.3077 8.1923C20.1795 8.0641 20.0385 8 19.8846 8H5.11538C4.96154 8 4.82052 8.0641 4.6923 8.1923C4.5641 8.32052 4.5 8.46154 4.5 8.61538V18.3846C4.5 18.5385 4.5641 18.6795 4.6923 18.8077C4.82052 18.9359 4.96154 19 5.11538 19ZM10.5 7H14.5V5.61537C14.5 5.46152 14.4359 5.3205 14.3077 5.1923C14.1795 5.0641 14.0385 5 13.8846 5H11.1154C10.9615 5 10.8205 5.0641 10.6923 5.1923C10.5641 5.3205 10.5 5.46152 10.5 5.61537V7Z" fill="#003AE4"></path>
  </g>
</svg>
